<svg viewBox="0 0 16 20" fill="none" xmlns="http://www.w3.org/2000/svg">
    <path
        d="M13 8H3V6C3 4.67392 3.52678 3.40215 4.46447 2.46447C5.40215 1.52679 6.67392 1 8 1C8.87668 0.999011 9.73822 1.22854 10.4982 1.66558C11.2582 2.10261 11.8899 2.73179 12.33 3.49M8 15V14M7.95 13H8.05M15 9V11.71C15.0287 13.5668 14.3379 15.3627 13.0722 16.7216C11.8065 18.0804 10.0641 18.8969 8.21 19C7.27323 19.0281 6.34035 18.8678 5.46668 18.5287C4.59301 18.1895 3.79635 17.6783 3.12393 17.0255C2.45152 16.3727 1.91704 15.5915 1.5522 14.7282C1.18736 13.8649 0.999579 12.9372 1 12V9C1 8.73479 1.10536 8.48043 1.29289 8.2929C1.48043 8.10536 1.73478 8 2 8H14C14.2652 8 14.5196 8.10536 14.7071 8.2929C14.8946 8.48043 15 8.73479 15 9Z"
        stroke="currentColor" stroke-linecap="round" stroke-linejoin="round" />
</svg>