<svg viewBox="0 0 20 20" fill="none" xmlns="http://www.w3.org/2000/svg">
    <path
        d="M10 19C7.61305 19 5.32387 18.0518 3.63604 16.364C1.94821 14.6761 1 12.3869 1 10C1 7.61305 1.94821 5.32387 3.63604 3.63604C5.32387 1.94821 7.61305 1 10 1C12.3869 1 14.6761 1.94821 16.364 3.63604C18.0518 5.32387 19 7.61305 19 10C19 12.3869 18.0518 14.6761 16.364 16.364C14.6761 18.0518 12.3869 19 10 19ZM10 5C9.20887 5 8.43552 5.2346 7.77772 5.67412C7.11992 6.11365 6.60723 6.73836 6.30448 7.46927C6.00173 8.20017 5.92252 9.00444 6.07686 9.78036C6.2312 10.5563 6.61216 11.269 7.17157 11.8284C7.73098 12.3878 8.44371 12.7688 9.21964 12.9231C9.99556 13.0775 10.7998 12.9983 11.5307 12.6955C12.2616 12.3928 12.8864 11.8801 13.3259 11.2223C13.7654 10.5645 14 9.79113 14 9C14 7.93913 13.5786 6.92172 12.8284 6.17157C12.0783 5.42143 11.0609 5 10 5ZM12.17 12.35C11.5256 12.7737 10.7712 12.9995 10 12.9995C9.22878 12.9995 8.47442 12.7737 7.83 12.35C6.87775 12.6593 6.00293 13.1693 5.26459 13.8455C4.52625 14.5218 3.94156 15.3485 3.55 16.27C4.38121 17.124 5.37376 17.8044 6.47003 18.2718C7.56631 18.7391 8.74448 18.9841 9.93619 18.9924C11.1279 19.0008 12.3094 18.7724 13.4121 18.3205C14.5149 17.8686 15.5169 17.2022 16.36 16.36L16.45 16.27C16.0584 15.3485 15.4738 14.5218 14.7354 13.8455C13.9971 13.1693 13.1222 12.6593 12.17 12.35Z"
        stroke="currentColor" stroke-linecap="round" stroke-linejoin="round" />
</svg>