<svg viewBox="0 0 17 17" fill="none" xmlns="http://www.w3.org/2000/svg">
    <path
        d="M11.8333 6.41667L7.66667 10.5833L5.16667 8.08333M15.1667 16H1.83333C1.61232 16 1.40036 15.9122 1.24408 15.7559C1.0878 15.5996 1 15.3877 1 15.1667V1.83333C1 1.61232 1.0878 1.40036 1.24408 1.24408C1.40036 1.0878 1.61232 1 1.83333 1H15.1667C15.3877 1 15.5996 1.0878 15.7559 1.24408C15.9122 1.40036 16 1.61232 16 1.83333V15.1667C16 15.3877 15.9122 15.5996 15.7559 15.7559C15.5996 15.9122 15.3877 16 15.1667 16Z"
        stroke="currentColor" stroke-linecap="round" stroke-linejoin="round" />
</svg>