<svg viewBox="0 0 24 24" fill="none" xmlns="http://www.w3.org/2000/svg">
<path d="M15.8333 10.4167L11.6667 14.5833L9.16667 12.0833M19.1667 20H5.83333C5.61232 20 5.40036 19.9122 5.24408 19.7559C5.0878 19.5996 5 19.3877 5 19.1667V5.83333C5 5.61232 5.0878 5.40036 5.24408 5.24408C5.40036 5.0878 5.61232 5 5.83333 5H19.1667C19.3877 5 19.5996 5.0878 19.7559 5.24408C19.9122 5.40036 20 5.61232 20 5.83333V19.1667C20 19.3877 19.9122 19.5996 19.7559 19.7559C19.5996 19.9122 19.3877 20 19.1667 20Z" stroke="currentColor" stroke-linecap="round" stroke-linejoin="round"/>
</svg>
