<svg width="10" height="10" viewBox="0 0 10 10" fill="none" xmlns="http://www.w3.org/2000/svg">
    <path fill-rule="evenodd" clip-rule="evenodd"
          d="M4.99956 5.94537L8.77089 9.7167C8.89662 9.83814 9.06503 9.90534 9.23982 9.90382C9.41462 9.9023 9.58183 9.83219 9.70544 9.70858C9.82904 9.58498 9.89915 9.41777 9.90067 9.24297C9.90219 9.06817 9.83499 8.89977 9.71356 8.77404L5.94222 5.0027L9.71356 1.23137C9.83499 1.10564 9.90219 0.937234 9.90067 0.762436C9.89915 0.587638 9.82904 0.42043 9.70544 0.296825C9.58183 0.173219 9.41462 0.103107 9.23982 0.101588C9.06503 0.100069 8.89662 0.167265 8.77089 0.288704L4.99956 4.06004L1.22822 0.288704C1.10192 0.170267 0.934499 0.105614 0.761377 0.108425C0.588255 0.111236 0.423018 0.181291 0.30063 0.303766C0.178241 0.426241 0.108303 0.591528 0.105614 0.764651C0.102926 0.937775 0.167697 1.10515 0.286223 1.23137L4.05689 5.0027L0.285557 8.77404C0.221883 8.83554 0.171095 8.9091 0.136156 8.99043C0.101216 9.07177 0.0828256 9.15925 0.0820564 9.24777C0.0812872 9.33629 0.0981549 9.42408 0.131675 9.50601C0.165196 9.58794 0.214698 9.66237 0.277293 9.72497C0.339888 9.78756 0.414323 9.83706 0.496254 9.87058C0.578185 9.90411 0.665971 9.92097 0.754491 9.92021C0.84301 9.91944 0.93049 9.90104 1.01183 9.86611C1.09316 9.83117 1.16673 9.78038 1.22822 9.7167L4.99956 5.94537Z"
          fill="#555555"/>
</svg>
