<svg width="26" height="26" viewBox="0 0 26 26" fill="none" xmlns="http://www.w3.org/2000/svg">
<path d="M16.4661 20.692L15.3828 23.8337H10.6161L9.53281 20.692L8.12448 19.8253L4.87448 20.4753L2.38281 16.3587L4.65781 13.867V12.1337L2.38281 9.64199L4.87448 5.52533L8.12448 6.17533L9.53281 5.30866L10.6161 2.16699H15.3828L16.4661 5.30866L17.8745 6.17533L21.1245 5.52533L23.6161 9.64199L21.3411 12.1337V13.867L23.6161 16.3587L21.1245 20.4753L17.8745 19.8253L16.4661 20.692Z" stroke="#424A47"/>
<path d="M13 16.25C14.7949 16.25 16.25 14.7949 16.25 13C16.25 11.2051 14.7949 9.75 13 9.75C11.2051 9.75 9.75 11.2051 9.75 13C9.75 14.7949 11.2051 16.25 13 16.25Z" stroke="#424A47" stroke-miterlimit="10"/>
</svg>
