<svg width="26" height="26" viewBox="0 0 26 26" fill="none" xmlns="http://www.w3.org/2000/svg">
<path d="M12.4158 8.9V9.758H9.62076V18H8.71076V9.758H5.91576V8.9H12.4158ZM16.9663 8.9C17.7809 8.9 18.4613 9.173 19.0073 9.719C19.5533 10.265 19.8263 10.9453 19.8263 11.76C19.8263 12.5747 19.5533 13.255 19.0073 13.801C18.4613 14.347 17.7809 14.62 16.9663 14.62H14.6263V18H13.7163V8.9H16.9663ZM16.9663 13.762C17.5296 13.762 17.9933 13.5757 18.3573 13.203C18.7299 12.8217 18.9163 12.3407 18.9163 11.76C18.9163 11.1793 18.7299 10.7027 18.3573 10.33C17.9933 9.94867 17.5296 9.758 16.9663 9.758H14.6263V13.762H16.9663Z" fill="white"/>
<circle cx="13" cy="13" r="12.5" stroke="#8E8E8E"/>
</svg>
