<svg width="38" height="38" viewBox="0 0 38 38" fill="none" xmlns="http://www.w3.org/2000/svg">
    <rect x="0.5" y="0.5" width="37" height="37" rx="18.5" stroke="white" stroke-opacity="0.2"/>
    <path d="M14.38 25.5H10.668V14.22H13.66C16.428 14.22 17.996 14.764 17.996 16.988C17.996 18.62 16.908 19.292 15.74 19.372V19.756C17.468 19.788 18.828 20.492 18.828 22.508C18.828 24.78 17.116 25.5 14.38 25.5ZM11.98 15.34V19.068H13.708C15.548 19.068 16.684 18.796 16.684 17.212C16.684 15.468 15.548 15.34 13.708 15.34H11.98ZM11.98 20.188V24.38H14.444C16.348 24.38 17.516 24.06 17.516 22.284C17.516 20.636 16.348 20.188 14.444 20.188H11.98ZM27.6444 25.5H20.6524V14.22H27.6444V15.34H21.9644V19.292H26.8444V20.412H21.9644V24.38H27.6444V25.5Z"
          fill="white"/>
</svg>
