<svg viewBox="0 0 44 44" fill="none" xmlns="http://www.w3.org/2000/svg" width="100%" height="100%">  
    <circle cx="22.0004" cy="22" r="21" transform="rotate(-43.5683 22.0004 22)" stroke="currentColor" stroke-width="2"/>  
    <path d="M1.78106 11.36L1.13306 5V0.199999H4.85306V5L4.22906 11.36H1.78106ZM4.44506 16.712C4.04506 17.112 3.56506 17.312 3.00506 17.312C2.44506 17.312 1.96506 17.112 1.56506 16.712C1.16506 16.312 0.965063 15.832 0.965063 15.272C0.965063 14.712 1.16506 14.232 1.56506 13.832C1.96506 13.432 2.44506 13.232 3.00506 13.232C3.56506 13.232 4.04506 13.432 4.44506 13.832C4.84506 14.232 5.04506 14.712 5.04506 15.272C5.04506 15.832 4.84506 16.312 4.44506 16.712Z" fill="currentColor" transform="translate(18, 10) scale(1.3)"/>  
</svg>  