<svg width="148" height="26" viewBox="0 0 148 26" fill="none" xmlns="http://www.w3.org/2000/svg">
    <g clip-path="url(#clip0_41_6314)">
        <path d="M20.2705 13.3496L20.9315 12.8774C21.3092 12.5941 21.4981 12.0905 21.3407 11.6184L18.5079 2.86806C18.3505 2.39592 17.9413 2.11263 17.4377 2.11263H16.6193C16.6193 6.14156 17.8784 10.0761 20.2705 13.3496ZM10.7018 20.2743L11.3943 20.8094C11.772 21.0926 12.3071 21.0926 12.7163 20.8094L20.1446 15.427C20.5223 15.1437 20.7112 14.6401 20.5538 14.1679L20.2705 13.3496C16.4305 14.5771 13.0625 17.0322 10.7018 20.2743ZM16.6193 2.08116L16.3675 1.32574C16.2101 0.885072 15.7695 0.570312 15.2973 0.570312H6.10635C5.63422 0.570312 5.19355 0.885072 5.03617 1.35721L4.78436 2.11263C8.62443 3.3402 12.7478 3.3402 16.6193 2.08116ZM1.13315 13.3496L0.849869 14.1679C0.692489 14.6401 0.849869 15.1437 1.25906 15.427L8.65591 20.8094C9.03362 21.0926 9.56871 21.0926 9.9779 20.8094L10.6704 20.3057C8.30967 17.0322 4.97322 14.5771 1.13315 13.3496ZM4.78436 2.08116H3.96599C3.49385 2.08116 3.05319 2.39592 2.89581 2.83658L0.0629696 11.5869C-0.0944102 12.059 0.0629696 12.5627 0.472157 12.8459L1.13315 13.3181C3.49385 10.0761 4.78436 6.14156 4.78436 2.08116Z"
              fill="url(#paint0_linear_41_6314)"/>
        <path d="M36.0401 0.633264C35.2217 0.82212 34.8125 1.42016 34.8125 2.45887V19.928H37.2676V2.45887C37.2676 1.42016 36.8584 0.82212 36.0401 0.633264ZM27.636 2.64773H33.8997V2.45887C33.8997 1.67197 34.0886 1.04245 34.4663 0.570312H27.636V2.64773Z"
              fill="url(#paint1_linear_41_6314)"/>
        <path d="M67.2641 20.2114C61.3781 20.2114 58.2935 17.5045 58.2935 12.6257H60.8115C60.8115 16.3399 63.0463 18.1025 67.3271 18.1025C70.6635 18.1025 72.1744 17.0323 72.1744 14.892C72.1744 13.3811 71.1986 12.2165 68.9323 11.6499L63.5185 10.265C60.4653 9.47809 59.2063 7.71544 59.2063 5.41769C59.2063 2.08124 61.6299 0.287109 66.068 0.287109C71.356 0.287109 74.1259 2.80519 74.1259 6.99149H71.5763C71.5763 3.90685 69.7507 2.36452 66.068 2.36452C63.2352 2.36452 61.7243 3.34028 61.7243 5.29179C61.7243 6.67673 62.5427 7.71544 64.6516 8.25053L70.0025 9.604C73.1186 10.3909 74.661 12.2165 74.661 14.7661C74.6924 18.2284 72.4262 20.2114 67.2641 20.2114Z"
              fill="#2A3229"/>
        <path d="M76.0144 6.26743H78.4695V9.60389C79.4453 7.46352 81.3968 6.01562 84.3241 6.01562C88.2586 6.01562 90.7137 8.94289 90.7137 13.1292C90.7137 17.284 88.2271 20.2113 84.3241 20.2113C81.3024 20.2113 79.3823 18.7004 78.4695 16.623V25.0586H76.0144V6.26743ZM83.5057 18.1024C86.1811 18.1024 88.29 16.4971 88.29 13.0977C88.29 9.66684 86.1811 8.06156 83.5057 8.06156C80.8302 8.06156 78.501 9.69831 78.501 13.0977C78.501 16.4342 80.8302 18.1024 83.5057 18.1024Z"
              fill="#2A3229"/>
        <path d="M98.9289 5.98389C103.273 5.98389 106.137 9.03706 106.137 13.066C106.137 17.1264 103.241 20.1795 98.9289 20.1795C94.5538 20.1795 91.6895 17.1264 91.6895 13.066C91.6895 9.03706 94.5852 5.98389 98.9289 5.98389ZM98.9289 18.1021C102.045 18.1021 103.745 15.8359 103.745 13.066C103.745 10.3276 102.045 8.0613 98.9289 8.0613C95.8128 8.0613 94.0816 10.3276 94.0816 13.066C94.1131 15.8673 95.8128 18.1021 98.9289 18.1021Z"
              fill="#2A3229"/>
        <path d="M109.599 6.26709H117.311V8.3445H110.103V19.8962H107.648V8.15565C107.679 6.86513 108.309 6.26709 109.599 6.26709Z"
              fill="#2A3229"/>
        <path d="M127.415 19.9282H122.064C120.773 19.9282 120.144 19.3301 120.144 18.0081V8.345H117.122V6.26758H120.144V2.80523L122.599 2.0498V6.26758H126.88V8.345H122.599V17.8507L127.446 17.8193V19.9282H127.415Z"
              fill="#2A3229"/>
        <path d="M127.667 14.8916H130.122C130.122 17.1579 131.601 18.2595 134.119 18.2595C136.039 18.2595 137.046 17.6615 137.046 16.2451C137.046 15.3008 136.48 14.7657 135.032 14.388L131.381 13.3178C129.838 12.8771 128.233 11.9014 128.233 9.72953C128.233 7.33735 130.216 5.98389 133.458 5.98389C136.983 5.98389 139.187 7.58916 139.187 10.5794H136.732C136.732 8.94263 135.567 7.87244 133.49 7.87244C131.727 7.87244 130.657 8.62787 130.657 9.66657C130.657 10.5794 131.255 11.1145 132.608 11.4922L135.787 12.405C138.085 13.066 139.501 14.1991 139.501 16.308C139.501 18.7946 137.644 20.1795 134.119 20.1795C130.027 20.211 127.667 18.2595 127.667 14.8916Z"
              fill="#2A3229"/>
        <path d="M145.608 0.255371C144.286 0.255371 143.216 1.32555 143.216 2.64754C143.216 3.96954 144.286 5.03972 145.608 5.03972C146.93 5.03972 148 3.96954 148 2.64754C148 1.32555 146.93 0.255371 145.608 0.255371ZM145.608 4.59905C144.538 4.59905 143.656 3.71773 143.656 2.64754C143.656 1.57736 144.538 0.696035 145.608 0.696035C146.678 0.696035 147.559 1.57736 147.559 2.64754C147.559 3.71773 146.678 4.59905 145.608 4.59905ZM146.269 2.8364C146.363 2.77345 146.458 2.7105 146.521 2.61607C146.584 2.52164 146.615 2.42721 146.615 2.30131C146.615 2.17541 146.584 2.08098 146.521 1.98655C146.458 1.89212 146.363 1.82917 146.269 1.76622C146.174 1.70327 146.017 1.70327 145.891 1.70327H144.758V3.65478H145.262V2.89935H145.576L146.143 3.6233H146.709L146.111 2.86788C146.174 2.86788 146.237 2.86788 146.269 2.8364ZM145.262 2.0495H145.828C145.923 2.0495 145.985 2.08098 146.048 2.11245C146.111 2.14393 146.143 2.20688 146.143 2.30131C146.143 2.36426 146.111 2.42721 146.048 2.49016C145.985 2.52164 145.923 2.55312 145.828 2.55312H145.262V2.0495Z"
              fill="#2A3229"/>
        <path d="M36.7325 0.570312H44.4441V2.64773H37.2361V19.928H34.781V2.45887C34.781 1.42016 35.1902 0.82212 36.0086 0.633264C36.2604 0.570313 36.4807 0.570312 36.7325 0.570312ZM58.1677 6.95993C58.1677 11.9017 55.2404 13.381 50.0783 13.381H46.9622V19.928H44.4756V0.570312H50.1098C55.2404 0.570312 58.1677 2.04968 58.1677 6.95993ZM55.681 6.95993C55.681 3.37167 53.3833 2.71068 50.1728 2.71068H46.9622V11.2407H50.1728C53.3833 11.2407 55.681 10.5797 55.681 6.95993Z"
              fill="#2A3229"/>
    </g>
    <defs>
        <linearGradient id="paint0_linear_41_6314" x1="1.76607e-05" y1="10.7882" x2="21.3927" y2="10.7882"
                        gradientUnits="userSpaceOnUse">
            <stop stop-color="#06F455"/>
            <stop offset="0.9954" stop-color="#0AEAAA"/>
        </linearGradient>
        <linearGradient id="paint1_linear_41_6314" x1="27.6216" y1="10.2394" x2="37.2626" y2="10.2394"
                        gradientUnits="userSpaceOnUse">
            <stop stop-color="#06F455"/>
            <stop offset="0.9954" stop-color="#0AEAAA"/>
        </linearGradient>
        <clipPath id="clip0_41_6314">
            <rect width="148" height="24.7716" fill="white" transform="translate(0 0.255371)"/>
        </clipPath>
    </defs>
</svg>
