<svg width="15" height="17" viewBox="0 0 15 17" fill="none" xmlns="http://www.w3.org/2000/svg">
    <path d="M11.3713 4.775C11.3713 5.52162 11.1499 6.25148 10.7351 6.87228C10.3203 7.49307 9.73071 7.97692 9.04092 8.26264C8.35113 8.54837 7.5921 8.62312 6.85983 8.47746C6.12755 8.33181 5.45491 7.97227 4.92696 7.44433C4.39902 6.91639 4.03949 6.24374 3.89383 5.51147C3.74817 4.77919 3.82292 4.02016 4.10865 3.33037C4.39437 2.64058 4.87822 2.051 5.49901 1.6362C6.11981 1.2214 6.84967 1 7.59629 1C8.09203 1 8.58292 1.09764 9.04092 1.28735C9.49893 1.47707 9.91508 1.75513 10.2656 2.10567C10.6162 2.45621 10.8942 2.87237 11.0839 3.33037C11.2736 3.78837 11.3713 4.27926 11.3713 4.775Z"
          stroke="white"/>
    <path d="M11.371 10.0161H11.637C12.189 10.0162 12.7219 10.2179 13.1356 10.5832C13.5494 10.9486 13.8155 11.4524 13.884 12.0001L14.184 14.3591C14.211 14.5719 14.1923 14.788 14.1293 14.9931C14.0662 15.1981 13.9602 15.3873 13.8183 15.5482C13.6763 15.709 13.5018 15.8378 13.3062 15.9259C13.1106 16.014 12.8985 16.0594 12.684 16.0591H2.512C2.29749 16.0594 2.08539 16.014 1.88981 15.9259C1.69423 15.8378 1.51967 15.709 1.37775 15.5482C1.23582 15.3873 1.1298 15.1981 1.06673 14.9931C1.00367 14.788 0.98501 14.5719 1.012 14.3591L1.303 12.0001C1.37161 11.4514 1.63859 10.9467 2.0536 10.5813C2.46862 10.2158 3.00301 10.0148 3.556 10.0161H3.821"
          stroke="white" stroke-linecap="round" stroke-linejoin="round"/>
</svg>
