<svg width="10" height="14" viewBox="0 0 10 14" fill="none" xmlns="http://www.w3.org/2000/svg">
    <path d="M1 1H7.67139C8.15404 1 8.61692 1.19173 8.95821 1.53302C9.29949 1.8743 9.49122 2.33718 9.49122 2.81983V11.3111C9.49122 11.4719 9.42734 11.6261 9.31363 11.7398C9.19992 11.8535 9.04569 11.9174 8.88488 11.9174H7.06505"
          stroke="white" stroke-linecap="round" stroke-linejoin="round"/>
    <path d="M5.24601 7.06505V8.27773M1 1L5.60217 1.92107C6.0146 2.00357 6.38573 2.22639 6.65242 2.55163C6.91912 2.87686 7.06493 3.28444 7.06505 3.70505V12.3939C7.06501 12.4835 7.04509 12.5721 7.00671 12.6531C6.96834 12.7342 6.91246 12.8057 6.84311 12.8626C6.77376 12.9194 6.69266 12.9602 6.60566 12.9819C6.51866 13.0037 6.42792 13.0058 6.33998 12.9883L1.97525 12.1126C1.7002 12.0577 1.4527 11.9091 1.27488 11.6922C1.09705 11.4753 0.999916 11.2035 1 10.923V1Z"
          stroke="white" stroke-linecap="round" stroke-linejoin="round"/>
</svg>
