<svg width="14" height="14" viewBox="0 0 14 14" fill="none" xmlns="http://www.w3.org/2000/svg">
    <path d="M8.20272 1.76141C8.20272 1.55947 8.1225 1.3658 7.97971 1.22301C7.83692 1.08022 7.64325 1 7.44131 1H6.56429C6.46423 0.999896 6.36514 1.01951 6.27267 1.05773C6.1802 1.09595 6.09616 1.15202 6.02538 1.22273C5.95459 1.29344 5.89843 1.37742 5.86012 1.46985C5.8218 1.56228 5.80208 1.66135 5.80208 1.76141C5.79677 1.93108 5.74076 2.09527 5.64129 2.23282C5.54182 2.37037 5.40344 2.47499 5.24398 2.53319C5.19295 2.55392 5.14193 2.57544 5.0925 2.59697C4.93834 2.66902 4.76616 2.69332 4.59808 2.66675C4.43001 2.64018 4.27372 2.56396 4.1493 2.44788C4.07859 2.37712 3.99463 2.32099 3.90222 2.2827C3.80981 2.24441 3.71076 2.2247 3.61073 2.2247C3.5107 2.2247 3.41165 2.24441 3.31924 2.2827C3.22683 2.32099 3.14287 2.37712 3.07216 2.44788L2.45187 3.06817C2.38112 3.13888 2.32499 3.22284 2.2867 3.31525C2.2484 3.40766 2.22869 3.50671 2.22869 3.60674C2.22869 3.70677 2.2484 3.80582 2.2867 3.89823C2.32499 3.99064 2.38112 4.0746 2.45187 4.14531C2.56739 4.27014 2.64275 4.4268 2.6682 4.59497C2.69365 4.76314 2.668 4.93507 2.59459 5.0885C2.5728 5.13899 2.5518 5.18949 2.5316 5.23998C2.4734 5.39945 2.36879 5.53783 2.23124 5.6373C2.09368 5.73677 1.92949 5.79277 1.75983 5.79809C1.65964 5.79829 1.56047 5.81828 1.46801 5.85688C1.37556 5.89549 1.29163 5.95196 1.22105 6.02307C1.15046 6.09418 1.0946 6.17851 1.05667 6.27125C1.01874 6.36398 0.999486 6.46329 1.00001 6.56348V7.4405C1.00001 7.64244 1.08023 7.83611 1.22302 7.9789C1.36581 8.12169 1.55948 8.20191 1.76142 8.20191C1.93109 8.20723 2.09528 8.26323 2.23283 8.3627C2.37038 8.46217 2.475 8.60055 2.5332 8.76002C2.55393 8.81104 2.57545 8.86207 2.59618 8.9115C2.66845 9.06561 2.69287 9.23784 2.66629 9.40596C2.63972 9.57409 2.56336 9.73039 2.44709 9.85469C2.37634 9.9254 2.32021 10.0094 2.28191 10.1018C2.24362 10.1942 2.22391 10.2932 2.22391 10.3933C2.22391 10.4933 2.24362 10.5923 2.28191 10.6848C2.32021 10.7772 2.37634 10.8611 2.44709 10.9318L3.06738 11.5521C3.13809 11.6229 3.22205 11.679 3.31446 11.7173C3.40687 11.7556 3.50592 11.7753 3.60595 11.7753C3.70598 11.7753 3.80503 11.7556 3.89744 11.7173C3.98985 11.679 4.07381 11.6229 4.14452 11.5521C4.26877 11.4358 4.42508 11.3593 4.59322 11.3328C4.76137 11.3062 4.93363 11.3307 5.08771 11.403C5.13714 11.4254 5.18817 11.4461 5.2392 11.4668C5.39866 11.525 5.53704 11.6296 5.63651 11.7672C5.73598 11.9047 5.79198 12.0689 5.7973 12.2386C5.7973 12.4405 5.87752 12.6342 6.02031 12.777C6.1631 12.9198 6.35677 13 6.55871 13H7.43573C7.63767 13 7.83134 12.9198 7.97413 12.777C8.11692 12.6342 8.19714 12.4405 8.19714 12.2386C8.20251 12.0688 8.25853 11.9046 8.35798 11.7669C8.45743 11.6292 8.59578 11.5245 8.75524 11.466C8.80627 11.4461 8.85729 11.4254 8.90673 11.4038C9.06076 11.3312 9.23307 11.3066 9.40127 11.3332C9.56946 11.3598 9.72578 11.4364 9.84992 11.5529C9.92063 11.6237 10.0046 11.6798 10.097 11.7181C10.1894 11.7564 10.2885 11.7761 10.3885 11.7761C10.4885 11.7761 10.5876 11.7564 10.68 11.7181C10.7724 11.6798 10.8563 11.6237 10.9271 11.5529L11.5473 10.9326C11.6181 10.8619 11.6742 10.778 11.7125 10.6856C11.7508 10.5931 11.7705 10.4941 11.7705 10.3941C11.7705 10.294 11.7508 10.195 11.7125 10.1026C11.6742 10.0102 11.6181 9.9262 11.5473 9.85549C11.431 9.73124 11.3546 9.57493 11.328 9.40679C11.3014 9.23864 11.3259 9.06638 11.3983 8.9123C11.4206 8.86287 11.4413 8.81184 11.462 8.76081C11.5202 8.60135 11.6249 8.46297 11.7624 8.3635C11.9 8.26403 12.0641 8.20803 12.2338 8.20271C12.4358 8.20271 12.6294 8.12249 12.7722 7.9797C12.915 7.83691 12.9952 7.64324 12.9952 7.4413V6.56428C12.9952 6.36234 12.915 6.16867 12.7722 6.02588C12.6294 5.88309 12.4358 5.80287 12.2338 5.80287C12.0641 5.7975 11.8998 5.74148 11.7621 5.64203C11.6245 5.54258 11.5197 5.40423 11.4612 5.24477C11.441 5.19162 11.42 5.14112 11.3983 5.09328C11.3262 4.93913 11.3019 4.76695 11.3285 4.59887C11.355 4.4308 11.4313 4.27451 11.5473 4.15009C11.6181 4.07938 11.6742 3.99542 11.7125 3.90301C11.7508 3.8106 11.7705 3.71155 11.7705 3.61152C11.7705 3.51149 11.7508 3.41244 11.7125 3.32003C11.6742 3.22762 11.6181 3.14366 11.5473 3.07295L10.9271 2.45266C10.8563 2.38191 10.7724 2.32578 10.68 2.28748C10.5876 2.24919 10.4885 2.22948 10.3885 2.22948C10.2885 2.22948 10.1894 2.24919 10.097 2.28748C10.0046 2.32578 9.92063 2.38191 9.84992 2.45266C9.72565 2.56606 9.57055 2.64007 9.40423 2.66533C9.23791 2.69059 9.06783 2.66597 8.9155 2.59458C8.865 2.57225 8.81451 2.55099 8.76401 2.5308C8.60467 2.47241 8.46641 2.36775 8.36697 2.23023C8.26752 2.09272 8.21144 1.92863 8.20591 1.75902L8.20272 1.76141Z"
          stroke="white"/>
    <path d="M9.40284 7.0022C9.40284 7.47697 9.26206 7.94107 8.99831 8.33584C8.73456 8.73061 8.35968 9.0383 7.92107 9.22002C7.48246 9.40175 6.99981 9.44933 6.53415 9.35677C6.0685 9.2642 5.64074 9.03564 5.30498 8.69999C4.96921 8.36433 4.74051 7.93666 4.64779 7.47103C4.55507 7.0054 4.6025 6.52274 4.78407 6.08407C4.96565 5.6454 5.27322 5.27041 5.6679 5.00653C6.06258 4.74265 6.52664 4.60172 7.0014 4.60156C7.31673 4.60146 7.62898 4.66347 7.92033 4.78407C8.21168 4.90467 8.47642 5.08148 8.69943 5.30441C8.92243 5.52734 9.09933 5.79202 9.22002 6.08333C9.34072 6.37464 9.40284 6.68688 9.40284 7.0022Z"
          stroke="white"/>
</svg>
