<svg width="12" height="14" viewBox="0 0 12 14" fill="none" xmlns="http://www.w3.org/2000/svg">
    <path d="M9.01326 3.91679C9.01326 4.49367 8.84219 5.0576 8.52169 5.53726C8.20119 6.01693 7.74565 6.39078 7.21268 6.61154C6.67971 6.83231 6.09324 6.89007 5.52744 6.77753C4.96164 6.66498 4.44192 6.38718 4.034 5.97926C3.62608 5.57134 3.34828 5.05162 3.23573 4.48582C3.12319 3.92002 3.18095 3.33355 3.40172 2.80058C3.62248 2.26761 3.99633 1.81207 4.47599 1.49157C4.95566 1.17107 5.51959 1 6.09647 1C6.47951 1 6.8588 1.07544 7.21268 1.22203C7.56656 1.36861 7.8881 1.58346 8.15895 1.85431C8.4298 2.12516 8.64465 2.4467 8.79123 2.80058C8.93782 3.15446 9.01326 3.53375 9.01326 3.91679Z"
          stroke="white"/>
    <path d="M9.01324 7.96637H9.21877C9.64525 7.96647 10.057 8.12229 10.3767 8.40457C10.6964 8.68684 10.902 9.07614 10.9549 9.49933L11.1867 11.322C11.2076 11.4865 11.1932 11.6534 11.1444 11.8118C11.0957 11.9703 11.0138 12.1165 10.9041 12.2408C10.7945 12.365 10.6596 12.4645 10.5085 12.5326C10.3574 12.6007 10.1935 12.6358 10.0277 12.6355H2.16826C2.00252 12.6358 1.83864 12.6007 1.68752 12.5326C1.5364 12.4645 1.40153 12.365 1.29187 12.2408C1.18221 12.1165 1.10029 11.9703 1.05156 11.8118C1.00283 11.6534 0.988418 11.4865 1.00927 11.322L1.23412 9.49933C1.28712 9.07535 1.49341 8.68541 1.81408 8.40303C2.13474 8.12065 2.54764 7.96534 2.97492 7.96637H3.17967"
          stroke="white" stroke-linecap="round" stroke-linejoin="round"/>
</svg>
