<svg id="Component_107_1" data-name="Component 107 – 1" xmlns="http://www.w3.org/2000/svg" xmlns:xlink="http://www.w3.org/1999/xlink" width="187" height="178" viewBox="0 0 187 178">
  <defs>
    <linearGradient id="linear-gradient" y1="0.5" x2="1" y2="0.5" gradientUnits="objectBoundingBox">
      <stop offset="0" stop-color="#00ff3b"/>
      <stop offset="1" stop-color="#05edc0"/>
    </linearGradient>
  </defs>
  <g id="Rectangle_408" data-name="Rectangle 408" fill="#f8fafb" stroke="#fff" stroke-width="1" opacity="0">
    <rect width="187" height="178" stroke="none"/>
    <rect x="0.5" y="0.5" width="186" height="177" fill="none"/>
  </g>
  <g id="Component_78_1" data-name="Component 78 – 1" transform="translate(10 48)">
    <rect id="Rectangle_340" data-name="Rectangle 340" width="168" height="83" rx="25" fill="url(#linear-gradient)"/>
    <path id="Path_322" data-name="Path 322" d="M0,.79H17.85a7.854,7.854,0,0,0-1.49,4.96v.5H1.65ZM111,24.45,96.98,20.93c-5.54-1.44-7.69-4.17-7.69-7.76,0-5.18,3.95-7.69,11.36-7.69,9.56,0,14.38,4.03,14.38,12.08h6.69c0-10.93-7.26-17.55-21.07-17.55C89,.01,82.67,4.69,82.67,13.46c0,6.04,3.31,10.64,11.29,12.73l14.17,3.66c5.9,1.51,8.48,4.53,8.48,8.49,0,5.61-3.88,8.41-12.66,8.41-11.22,0-17.04-4.6-17.04-14.31H80.3c0,12.73,8.12,19.85,23.51,19.85,13.52,0,19.41-5.25,19.41-14.31,0-6.69-4.03-11.43-12.22-13.52Zm-31.05-6.9c0,12.94-7.62,16.82-21.14,16.82h-8.2V51.48H44.07V6.26H25.23V51.49h-6.4V5.75c0-2.7,1.05-4.25,3.21-4.76a7.828,7.828,0,0,1,1.83-.2H58.81c13.52,0,21.14,3.88,21.14,16.75Zm-6.48,0c0-9.42-6.04-11.14-14.45-11.14H50.61V28.77h8.41c8.41,0,14.45-1.72,14.45-11.21Z" transform="translate(23 15.22)"/>
  </g>
</svg>
