<svg width="74" height="74" viewBox="0 0 74 74" fill="none" xmlns="http://www.w3.org/2000/svg">
    <path opacity="0.15"
          d="M36.5225 73.0317C29.2478 73.0435 22.137 70.8714 16.1105 66.7966C10.2407 62.834 5.64612 57.2541 2.88337 50.733C0.515585 45.1385 -0.416741 39.041 0.171107 32.9945C0.758955 26.9481 2.84834 21.1443 6.24943 16.1106C10.2121 10.2409 15.792 5.64625 22.313 2.8835C27.9076 0.515626 34.0052 -0.416747 40.0518 0.171102C46.0983 0.758951 51.9022 2.84839 56.9359 6.24955C62.8057 10.2122 67.4003 15.7921 70.1631 22.3131C72.5309 27.9077 73.4633 34.0054 72.8755 40.0519C72.2876 46.0985 70.1982 51.9023 66.797 56.936C62.8344 62.8058 57.2545 67.4004 50.7334 70.1632C46.2377 72.0657 41.4042 73.0414 36.5225 73.0317ZM36.5225 6.3435C30.5087 6.33366 24.6304 8.12912 19.6484 11.4975C14.7961 14.7731 10.9979 19.3857 8.71397 24.7762C6.75638 29.4012 5.98553 34.442 6.47145 39.4407C6.95737 44.4393 8.68467 49.2373 11.4964 53.3986C14.7719 58.2509 19.3843 62.0491 24.7746 64.3331C29.3996 66.2906 34.4404 67.0614 39.4391 66.5755C44.4377 66.0896 49.2357 64.3623 53.397 61.5507C58.2493 58.2752 62.0475 53.6628 64.3315 48.2724C66.289 43.6474 67.0599 38.6066 66.5739 33.608C66.088 28.6093 64.3607 23.8114 61.5491 19.65C58.2734 14.7974 53.6607 10.9991 48.2698 8.71507C44.5535 7.14227 40.5579 6.33564 36.5225 6.3435Z"
          fill="url(#paint0_linear_1348_405)"/>
    <path d="M67.9242 29.0317L66.3617 24.2272C64.4832 18.442 60.8211 13.4001 55.9005 9.82442C50.9799 6.24873 45.0534 4.32289 38.9708 4.323L33.9181 4.323C27.8364 4.3236 21.9109 6.24914 16.9905 9.82375C12.0702 13.3984 8.40751 18.4386 6.52723 24.2224L4.96468 29.0269C3.08585 34.8112 3.08599 41.0418 4.96511 46.826C6.84422 52.6102 10.5059 57.6513 15.4255 61.2271L19.5144 64.1964C24.4351 67.7722 30.3617 69.6981 36.4445 69.6981C42.5272 69.6981 48.4538 67.7722 53.3745 64.1964L57.4634 61.2271C62.3839 57.6521 66.0462 52.611 67.9254 46.8265C69.8046 41.042 69.8042 34.8111 67.9242 29.0269V29.0317ZM63.8937 37.8862L59.4057 51.696C58.3282 55.011 56.2291 57.8999 53.4091 59.9487C50.5891 61.9975 47.1929 63.101 43.7071 63.1011H29.1866C25.7009 63.101 22.3047 61.9975 19.4847 59.9487C16.6647 57.8999 14.5655 55.011 13.4881 51.696L9.00492 37.8862C7.92733 34.5711 7.92721 30.9999 9.00457 27.6848C10.0819 24.3696 12.1814 21.4808 15.002 19.4325L26.7479 10.8993C29.5672 8.84932 32.9635 7.74508 36.4493 7.74508C39.9352 7.74508 43.3314 8.84932 46.1508 10.8993L57.8967 19.4325C60.7172 21.4808 62.8167 24.3696 63.8941 27.6848C64.9714 30.9999 64.9713 34.5711 63.8937 37.8862Z"
          fill="url(#paint1_linear_1348_405)"/>
    <defs>
        <linearGradient id="paint0_linear_1348_405" x1="36.5233" y1="73.0318" x2="33.0185" y2="-6.66499e-05"
                        gradientUnits="userSpaceOnUse">
            <stop stop-color="#47B514"/>
            <stop offset="1" stop-color="#E0BF07"/>
        </linearGradient>
        <linearGradient id="paint1_linear_1348_405" x1="65.0589" y1="21.582" x2="7.17862" y2="49.8425"
                        gradientUnits="userSpaceOnUse">
            <stop stop-color="#47B514"/>
            <stop offset="1" stop-color="#E0BF07"/>
        </linearGradient>
    </defs>
</svg>
