<svg width="74" height="74" viewBox="0 0 74 74" fill="none" xmlns="http://www.w3.org/2000/svg">
    <path opacity="0.17"
          d="M36.9992 73.985C29.6295 73.9969 22.4259 71.7965 16.3208 67.6685C10.3744 63.6541 5.71982 58.0014 2.92101 51.3952C0.522315 45.7277 -0.422181 39.5506 0.17334 33.4252C0.768861 27.2998 2.88552 21.4203 6.331 16.3209C10.3454 10.3745 15.9981 5.71995 22.6043 2.92114C28.2719 0.522356 34.4491 -0.422186 40.5746 0.173336C46.7 0.768857 52.5796 2.88557 57.6791 6.33113C63.6255 10.3455 68.2801 15.9982 71.0789 22.6044C73.4776 28.272 74.4222 34.4492 73.8267 40.5747C73.2311 46.7002 71.1144 52.5798 67.6689 57.6792C63.6545 63.6256 58.0018 68.2802 51.3956 71.079C46.8412 73.0064 41.9446 73.9948 36.9992 73.985ZM36.9992 6.4263C30.9069 6.41633 24.9519 8.23523 19.9049 11.6476C14.9893 14.966 11.1415 19.6387 8.82771 25.0996C6.84457 29.785 6.06366 34.8916 6.55592 39.9555C7.04818 45.0194 8.79803 49.88 11.6464 54.0956C14.9647 59.0112 19.6373 62.859 25.098 65.1728C29.7834 67.1559 34.89 67.9368 39.9539 67.4445C45.0177 66.9522 49.8783 65.2024 54.094 62.3541C59.0096 59.0358 62.8574 54.3633 65.1712 48.9025C67.1543 44.2171 67.9352 39.1105 67.4429 34.0466C66.9506 28.9828 65.2008 24.1222 62.3524 19.9065C59.034 14.9906 54.3611 11.1426 48.8999 8.82882C45.135 7.23549 41.0873 6.41834 36.9992 6.4263Z"
          fill="url(#paint0_linear_1348_372)"/>
    <path d="M68.8103 29.4104L67.2274 24.5432C65.3243 18.6824 61.6144 13.5747 56.6296 9.95238C51.6448 6.33002 45.641 4.37904 39.479 4.37915L34.3603 4.37915C28.1992 4.37976 22.1963 6.33043 17.2118 9.9517C12.2272 13.573 8.51674 18.679 6.61192 24.5383L5.02897 29.4055C3.12561 35.2653 3.12576 41.5772 5.0294 47.4369C6.93304 53.2967 10.6425 58.4036 15.6263 62.026L19.7686 65.034C24.7536 68.6565 30.7575 70.6076 36.9196 70.6076C43.0818 70.6076 49.0857 68.6565 54.0707 65.034L58.213 62.026C63.1977 58.4043 66.9078 53.2975 68.8115 47.4375C70.7153 41.5775 70.7148 35.2652 68.8103 29.4055V29.4104ZM64.7272 38.3804L60.1805 52.3705C59.0891 55.7288 56.9626 58.6554 54.1057 60.7309C51.2489 62.8064 47.8083 63.9244 44.2771 63.9245H29.5671C26.0359 63.9244 22.5953 62.8064 19.7385 60.7309C16.8817 58.6554 14.7551 55.7288 13.6637 52.3705L9.12194 38.3804C8.03029 35.0221 8.03017 31.4043 9.12159 28.0458C10.213 24.6874 12.3399 21.7609 15.1973 19.6859L27.0965 11.0413C29.9526 8.96455 33.3932 7.8459 36.9246 7.8459C40.4559 7.8459 43.8965 8.96455 46.7526 11.0413L58.6518 19.6859C61.5092 21.7609 63.6361 24.6874 64.7276 28.0458C65.819 31.4043 65.8189 35.0221 64.7272 38.3804Z"
          fill="url(#paint1_linear_1348_372)"/>
    <defs>
        <linearGradient id="paint0_linear_1348_372" x1="37" y1="73.9851" x2="33.4494" y2="-6.75122e-05"
                        gradientUnits="userSpaceOnUse">
            <stop stop-color="#B2B2B2"/>
            <stop offset="1" stop-color="white"/>
        </linearGradient>
        <linearGradient id="paint1_linear_1348_372" x1="65.9076" y1="21.8635" x2="7.27181" y2="50.4928"
                        gradientUnits="userSpaceOnUse">
            <stop stop-color="#B2B2B2"/>
            <stop offset="1" stop-color="white"/>
        </linearGradient>
    </defs>
</svg>
