<svg width="75" height="75" viewBox="0 0 75 75" fill="none" xmlns="http://www.w3.org/2000/svg">
    <path opacity="0.15"
          d="M37.0265 74.0396C29.6514 74.0515 22.4425 71.8494 16.3329 67.7184C10.3821 63.7011 5.72404 58.0442 2.92316 51.4332C0.5227 45.7614 -0.422492 39.5798 0.173468 33.4499C0.769429 27.32 2.88765 21.4361 6.33567 16.333C10.353 10.3822 16.0099 5.72417 22.6209 2.92329C28.2927 0.522742 34.4745 -0.422498 40.6045 0.173463C46.7345 0.769425 52.6184 2.88769 57.7216 6.3358C63.6724 10.3531 68.3304 16.01 71.1313 22.6211C73.5319 28.2929 74.4771 34.4746 73.8811 40.6046C73.2852 46.7346 71.1669 52.6185 67.7188 57.7217C63.7015 63.6725 58.0446 68.3306 51.4335 71.1314C46.8758 73.0602 41.9756 74.0494 37.0265 74.0396ZM37.0265 6.43104C30.9297 6.42107 24.9703 8.2413 19.9196 11.6561C15.0003 14.977 11.1497 19.6532 8.83422 25.1181C6.84962 29.8069 6.06813 34.9173 6.56076 39.985C7.05339 45.0526 8.80452 49.9168 11.655 54.1355C14.9757 59.0547 19.6518 62.9053 25.1165 65.2209C29.8053 67.2054 34.9157 67.9869 39.9833 67.4943C45.0509 67.0016 49.9151 65.2505 54.1339 62.4001C59.0532 59.0794 62.9038 54.4034 65.2193 48.9386C67.2038 44.2498 67.9853 39.1394 67.4927 34.0718C67 29.0041 65.2489 24.14 62.3985 19.9212C59.0776 15.0017 54.4012 11.1508 48.936 8.83534C45.1683 7.24083 41.1176 6.42307 37.0265 6.43104Z"
          fill="url(#paint0_linear_1348_330)"/>
    <path d="M68.8623 29.4325L67.2782 24.5617C65.3738 18.6967 61.6611 13.5852 56.6726 9.96015C51.6841 6.33512 45.6759 4.3827 39.5094 4.38281L34.3869 4.38281C28.2212 4.38342 22.214 6.33554 17.2257 9.95948C12.2375 13.5834 8.52427 18.6932 6.61804 24.5568L5.03393 29.4276C3.12917 35.2917 3.12932 41.6083 5.03436 47.4724C6.93941 53.3364 10.6516 58.4471 15.6391 62.0721L19.7844 65.0825C24.7731 68.7076 30.7814 70.6601 36.9481 70.6601C43.1148 70.6601 49.1232 68.7076 54.1118 65.0825L58.2572 62.0721C63.2456 58.4478 66.9584 53.3372 68.8636 47.4729C70.7687 41.6086 70.7683 35.2916 68.8623 29.4276V29.4325ZM64.7762 38.4092L60.2262 52.4096C59.1339 55.7703 57.0058 58.6991 54.1469 60.7761C51.2879 62.8532 47.8449 63.972 44.311 63.9721H29.5901C26.0563 63.972 22.6133 62.8532 19.7543 60.7761C16.8954 58.6991 14.7673 55.7703 13.675 52.4096L9.12992 38.4092C8.03746 35.0483 8.03734 31.4279 9.12957 28.067C10.2218 24.7061 12.3503 21.7774 15.2098 19.7008L27.1177 11.0499C29.976 8.9716 33.4191 7.85212 36.9531 7.85212C40.487 7.85212 43.9301 8.9716 46.7884 11.0499L58.6964 19.7008C61.5559 21.7774 63.6843 24.7061 64.7766 28.067C65.8688 31.4279 65.8687 35.0483 64.7762 38.4092Z"
          fill="url(#paint1_linear_1348_330)"/>
    <defs>
        <linearGradient id="paint0_linear_1348_330" x1="37.0273" y1="74.0397" x2="33.4741" y2="-6.75815e-05"
                        gradientUnits="userSpaceOnUse">
            <stop stop-color="#0045FF"/>
            <stop offset="0.246" stop-color="#00BBFD"/>
            <stop offset="1" stop-color="#01D775"/>
        </linearGradient>
        <linearGradient id="paint1_linear_1348_330" x1="65.9575" y1="21.88" x2="3.70217" y2="45.596"
                        gradientUnits="userSpaceOnUse">
            <stop stop-color="#0045FF"/>
            <stop offset="0.246" stop-color="#00BBFD"/>
            <stop offset="1" stop-color="#01D775"/>
        </linearGradient>
    </defs>
</svg>
