<svg width="75" height="75" viewBox="0 0 75 75" fill="none" xmlns="http://www.w3.org/2000/svg">
    <g clip-path="url(#clip0_1348_262)">
        <path opacity="0.249"
              d="M37.4999 3.05176e-05C44.9723 -0.0120468 52.2763 2.21906 58.4664 6.40453C64.4957 10.4748 69.2151 16.2063 72.0529 22.9045C74.4851 28.6511 75.4427 34.9142 74.8389 41.125C74.2351 47.3357 72.0889 53.2971 68.5954 58.4675C64.5251 64.4968 58.7937 69.2162 52.0954 72.054C46.3488 74.4862 40.0856 75.4439 33.8748 74.8401C27.6639 74.2363 21.7024 72.0901 16.5319 68.5965C10.5027 64.5262 5.78325 58.7947 2.94544 52.0965C0.513237 46.3499 -0.444466 40.0867 0.159355 33.8758C0.763176 27.665 2.90937 21.7035 6.40294 16.533C10.4732 10.5038 16.2047 5.78434 22.9029 2.94653C27.5208 0.992302 32.4856 -0.00987244 37.4999 3.05176e-05ZM37.4999 68.5C43.6771 68.5101 49.7151 66.6659 54.8324 63.206C59.8165 59.8414 63.7179 55.1035 66.0639 49.5665C68.0747 44.8159 68.8665 39.6381 68.3674 34.5037C67.8683 29.3693 66.094 24.4409 63.2059 20.1665C59.8414 15.1825 55.1038 11.2811 49.5669 8.93503C44.8163 6.9243 39.6385 6.13253 34.5041 6.63165C29.3697 7.13078 24.4414 8.90498 20.1669 11.793C15.1829 15.1575 11.2815 19.8952 8.93544 25.432C6.92471 30.1827 6.13294 35.3604 6.63206 40.4949C7.13119 45.6293 8.90539 50.5576 11.7934 54.832C15.1581 59.8164 19.8962 63.718 25.4334 66.064C29.2508 67.6796 33.3549 68.5081 37.4999 68.5Z"
              fill="url(#paint0_linear_1348_262)"/>
        <path d="M5.24598 45.1959L6.85098 50.1309C8.78054 56.0733 12.5421 61.2522 17.5964 64.925C22.6507 68.5979 28.7381 70.576 34.986 70.5759L40.176 70.5759C46.4229 70.5753 52.5094 68.5975 57.5634 64.9257C62.6174 61.254 66.3796 56.0768 68.311 50.1359L69.916 45.2009C71.8459 39.2595 71.8457 32.8596 69.9155 26.9182C67.9854 20.9768 64.2243 15.7988 59.171 12.1259L54.971 9.07593C49.9166 5.40299 43.829 3.42471 37.581 3.42471C31.333 3.42471 25.2454 5.40299 20.191 9.07593L15.991 12.1259C10.9368 15.798 7.17499 20.976 5.24474 26.9177C3.31448 32.8593 3.31492 39.2595 5.24598 45.2009V45.1959ZM9.38598 36.1009L13.996 21.9159C15.1027 18.5109 17.2588 15.5435 20.1555 13.439C23.0521 11.3346 26.5406 10.2011 30.121 10.2009L45.036 10.2009C48.6164 10.2011 52.1049 11.3346 55.0015 13.439C57.8982 15.5435 60.0543 18.5109 61.161 21.9159L65.766 36.1009C66.8728 39.5061 66.873 43.1743 65.7663 46.5795C64.6597 49.9847 62.5032 52.952 59.606 55.0559L47.541 63.8209C44.6451 65.9266 41.1565 67.0609 37.576 67.0609C33.9954 67.0609 30.5069 65.9266 27.611 63.8209L15.546 55.0559C12.6488 52.952 10.4922 49.9847 9.38562 46.5795C8.27899 43.1743 8.27912 39.5061 9.38598 36.1009Z"
              fill="url(#paint1_linear_1348_262)"/>
    </g>
    <defs>
        <linearGradient id="paint0_linear_1348_262" x1="37.4991" y1="-3.995e-05" x2="41.0992" y2="75.0159"
                        gradientUnits="userSpaceOnUse">
            <stop stop-color="#F54B00"/>
            <stop offset="1" stop-color="#90374F"/>
        </linearGradient>
        <linearGradient id="paint1_linear_1348_262" x1="8.18915" y1="52.848" x2="67.6419" y2="23.8198"
                        gradientUnits="userSpaceOnUse">
            <stop stop-color="#F54B00"/>
            <stop offset="1" stop-color="#90374F"/>
        </linearGradient>
        <clipPath id="clip0_1348_262">
            <rect width="75" height="75" fill="white"/>
        </clipPath>
    </defs>
</svg>
