<svg width="75" height="75" viewBox="0 0 75 75" fill="none" xmlns="http://www.w3.org/2000/svg">
    <g clip-path="url(#clip0_1348_65)">
        <path opacity="0.201"
              d="M37.5001 75C30.0277 75.012 22.7237 72.7809 16.5336 68.5955C10.5043 64.5252 5.78486 58.7937 2.94706 52.0955C0.514944 46.3489 -0.442711 40.0858 0.161107 33.875C0.764926 27.6643 2.91108 21.7029 6.40456 16.5325C10.4749 10.5032 16.2063 5.78377 22.9046 2.94597C28.6512 0.513765 34.9144 -0.443938 41.1252 0.159881C47.3361 0.763701 53.2976 2.9099 58.4681 6.40347C64.4973 10.4738 69.2168 16.2053 72.0546 22.9035C74.4868 28.6501 75.4445 34.9133 74.8406 41.1242C74.2368 47.335 72.0906 53.2965 68.5971 58.467C64.5268 64.4962 58.7953 69.2157 52.0971 72.0535C47.4792 74.0077 42.5144 75.0099 37.5001 75ZM37.5001 6.49997C31.3229 6.48986 25.2849 8.3341 20.1676 11.794C15.1835 15.1586 11.2821 19.8965 8.93606 25.4335C6.92529 30.1841 6.13349 35.3619 6.63262 40.4963C7.13174 45.6307 8.90596 50.5591 11.7941 54.8335C15.1586 59.8175 19.8962 63.7189 25.4331 66.065C30.1837 68.0757 35.3615 68.8675 40.4959 68.3683C45.6303 67.8692 50.5586 66.095 54.8331 63.207C59.8171 59.8425 63.7185 55.1048 66.0646 49.568C68.0753 44.8173 68.8671 39.6396 68.3679 34.5051C67.8688 29.3707 66.0946 24.4424 63.2066 20.168C59.8419 15.1836 55.1038 11.282 49.5666 8.93597C45.7492 7.32043 41.6451 6.49189 37.5001 6.49997Z"
              fill="url(#paint0_linear_1348_65)"/>
        <path d="M69.755 29.8046L68.15 24.8696C66.2204 18.9271 62.4589 13.7483 57.4046 10.0754C52.3503 6.40261 46.2628 4.42445 40.015 4.42456L34.825 4.42456C28.578 4.42518 22.4916 6.40303 17.4375 10.0748C12.3835 13.7465 8.62135 18.9237 6.68999 24.8646L5.08499 29.7996C3.15511 35.741 3.15527 42.1409 5.08543 48.0823C7.01559 54.0237 10.7767 59.2017 15.83 62.8746L20.03 65.9246C25.0844 69.5975 31.172 71.5758 37.42 71.5758C43.668 71.5758 49.7556 69.5975 54.81 65.9246L59.01 62.8746C64.0642 59.2025 67.826 54.0245 69.7562 48.0828C71.6865 42.1412 71.6861 35.7409 69.755 29.7996V29.8046ZM65.615 38.8996L61.005 53.0846C59.8983 56.4896 57.7422 59.457 54.8455 61.5615C51.9489 63.6659 48.4604 64.7994 44.88 64.7996H29.965C26.3846 64.7994 22.8961 63.6659 19.9995 61.5615C17.1028 59.457 14.9467 56.4896 13.84 53.0846L9.23499 38.8996C8.12813 35.4944 8.128 31.8262 9.23463 28.421C10.3413 25.0158 12.4978 22.0485 15.395 19.9446L27.46 11.1796C30.3559 9.07385 33.8444 7.93962 37.425 7.93962C41.0056 7.93962 44.4941 9.07385 47.39 11.1796L59.455 19.9446C62.3522 22.0485 64.5087 25.0158 65.6154 28.421C66.722 31.8262 66.7219 35.4944 65.615 38.8996Z"
              fill="url(#paint1_linear_1348_65)"/>
        <path d="M69.755 29.8046L68.15 24.8696C66.2204 18.9271 62.4589 13.7483 57.4046 10.0754C52.3503 6.40261 46.2628 4.42445 40.015 4.42456L34.825 4.42456C28.578 4.42518 22.4916 6.40303 17.4375 10.0748C12.3835 13.7465 8.62135 18.9237 6.68999 24.8646L5.08499 29.7996C3.15511 35.741 3.15527 42.1409 5.08543 48.0823C7.01559 54.0237 10.7767 59.2017 15.83 62.8746L20.03 65.9246C25.0844 69.5975 31.172 71.5758 37.42 71.5758C43.668 71.5758 49.7556 69.5975 54.81 65.9246L59.01 62.8746C64.0642 59.2025 67.826 54.0245 69.7562 48.0828C71.6865 42.1412 71.6861 35.7409 69.755 29.7996V29.8046ZM65.615 38.8996L61.005 53.0846C59.8983 56.4896 57.7422 59.457 54.8455 61.5615C51.9489 63.6659 48.4604 64.7994 44.88 64.7996H29.965C26.3846 64.7994 22.8961 63.6659 19.9995 61.5615C17.1028 59.457 14.9467 56.4896 13.84 53.0846L9.23499 38.8996C8.12813 35.4944 8.128 31.8262 9.23463 28.421C10.3413 25.0158 12.4978 22.0485 15.395 19.9446L27.46 11.1796C30.3559 9.07385 33.8444 7.93962 37.425 7.93962C41.0056 7.93962 44.4941 9.07385 47.39 11.1796L59.455 19.9446C62.3522 22.0485 64.5087 25.0158 65.6154 28.421C66.722 31.8262 66.7219 35.4944 65.615 38.8996Z"
              fill="url(#paint2_linear_1348_65)"/>
    </g>
    <defs>
        <linearGradient id="paint0_linear_1348_65" x1="37.5009" y1="75" x2="33.9008" y2="-0.0159376"
                        gradientUnits="userSpaceOnUse">
            <stop stop-color="#00FFCE"/>
            <stop offset="1" stop-color="#06F35A"/>
        </linearGradient>
        <linearGradient id="paint1_linear_1348_65" x1="66.8118" y1="22.1525" x2="3.73567" y2="46.1812"
                        gradientUnits="userSpaceOnUse">
            <stop stop-color="#0045FF"/>
            <stop offset="0.246" stop-color="#00BBFD"/>
            <stop offset="1" stop-color="#01D775"/>
        </linearGradient>
        <linearGradient id="paint2_linear_1348_65" x1="66.8118" y1="22.1525" x2="3.73567" y2="46.1812"
                        gradientUnits="userSpaceOnUse">
            <stop stop-color="#00FFCE"/>
            <stop offset="1" stop-color="#06F35A"/>
        </linearGradient>
        <clipPath id="clip0_1348_65">
            <rect width="75" height="75" fill="white"/>
        </clipPath>
    </defs>
</svg>
