<svg width="14" height="14" viewBox="0 0 14 14" fill="none" xmlns="http://www.w3.org/2000/svg">
<circle cx="7" cy="7" r="7" fill="#434343"/>
<path d="M7.33973 3.8C7.24639 3.89333 7.13306 3.94 6.99973 3.94C6.86639 3.94 6.75306 3.89333 6.65973 3.8C6.56639 3.70667 6.51973 3.59333 6.51973 3.46C6.51973 3.32667 6.56639 3.21333 6.65973 3.12C6.75306 3.02667 6.86639 2.98 6.99973 2.98C7.13306 2.98 7.24639 3.02667 7.33973 3.12C7.43306 3.21333 7.47973 3.32667 7.47973 3.46C7.47973 3.59333 7.43306 3.70667 7.33973 3.8ZM6.66973 10V5H7.32973V10H6.66973Z" fill="#9E9E9E"/>
</svg>
