<svg width="1201" height="117" viewBox="0 0 1201 117" fill="none" xmlns="http://www.w3.org/2000/svg">
<mask id="mask0_283_90" style="mask-type:luminance" maskUnits="userSpaceOnUse" x="0" y="0" width="1201" height="195">
<path d="M1201 0.277832H0V194.415H1201V0.277832Z" fill="white"/>
</mask>
<g mask="url(#mask0_283_90)">
<path d="M235.304 19.0057H280.608V17.502C280.362 12.1921 281.982 6.9582 285.203 2.65381H230.229L235.304 19.0057Z" fill="#1C1C1C"/>
<path d="M549.978 156.751C502.583 156.751 477.562 135.444 477.562 97.3475H497.939C497.939 126.398 515.875 140.173 550.422 140.173C577.446 140.173 589.402 131.775 589.402 115.001C589.402 103.16 581.429 94.1249 563.27 89.598L519.641 78.6285C495.054 72.3879 484.872 58.6157 484.872 40.5344C484.872 14.2731 504.359 0.277832 540.237 0.277832C582.76 0.277832 605.129 20.0833 605.129 52.8003H584.525C584.525 28.6883 569.687 16.6376 540.231 16.6376C517.421 16.6376 505.24 24.1693 505.24 39.6657C505.24 50.4253 511.885 58.6104 528.932 62.9064L572.119 73.456C597.37 79.6966 609.77 93.8992 609.77 113.915C609.77 141.031 591.606 156.748 549.97 156.748" fill="#1C1C1C"/>
<path d="M620.375 47.4214H640.084V73.457C647.835 56.6616 663.562 45.2695 687.257 45.2695C718.93 45.2695 738.862 68.2976 738.862 101.007C738.862 133.501 718.93 156.531 687.257 156.531C662.898 156.531 647.404 144.693 640.084 128.344V194.416H620.375V47.4214ZM680.832 140.172C702.314 140.172 719.369 127.688 719.369 101.004C719.369 74.1078 702.314 61.6162 680.832 61.6162C659.349 61.6162 640.526 74.5382 640.526 101.004C640.526 127.05 659.349 140.172 680.832 140.172Z" fill="#1C1C1C"/>
<path d="M805.28 45.2695C840.272 45.2695 863.527 69.1505 863.527 100.794C863.527 132.64 840.274 156.531 805.28 156.531C770.066 156.531 746.811 132.65 746.811 100.794C746.811 69.1505 770.066 45.2695 805.28 45.2695ZM805.28 140.172C830.308 140.172 844.048 122.531 844.048 100.792C844.048 79.2724 830.317 61.6162 805.28 61.6162C780.035 61.6162 766.306 79.2671 766.306 100.792C766.306 122.531 780.035 140.172 805.28 140.172Z" fill="#1C1C1C"/>
<path d="M891.183 47.4203H953.413V63.767H895.396V154.373H875.687V62.2606C875.687 52.144 880.778 47.415 891.188 47.415" fill="#1C1C1C"/>
<path d="M1034.89 154.376H991.707C981.296 154.376 976.205 149.652 976.205 139.31V63.7696H951.838V47.4229H976.205V20.2931L995.912 14.4829V47.4229H1030.46V63.7696H995.912V138.239L1034.89 138.019V154.376Z" fill="#1C1C1C"/>
<path d="M1036.87 114.995H1056.58C1056.58 132.636 1068.53 141.461 1088.91 141.461C1104.41 141.461 1112.39 136.737 1112.39 125.755C1112.39 118.433 1107.74 114.134 1096.22 111.119L1066.76 102.721C1054.36 99.2731 1041.29 91.5315 1041.29 74.534C1041.29 55.8018 1057.24 45.2627 1083.37 45.2627C1111.72 45.2627 1129.44 57.9537 1129.44 81.2154H1109.72C1109.72 68.3013 1100.43 60.1188 1083.59 60.1188C1069.42 60.1188 1060.78 66.1546 1060.78 74.1141C1060.78 81.218 1065.66 85.514 1076.51 88.5266L1102.2 95.6306C1120.8 100.8 1132.09 109.626 1132.09 126.196C1132.09 145.558 1117.03 156.538 1088.68 156.538C1055.91 156.538 1036.86 141.469 1036.86 115.006" fill="#1C1C1C"/>
<path d="M1181.69 0.277966C1177.85 0.263941 1174.1 1.35217 1170.9 3.40482C1167.7 5.45747 1165.21 8.38221 1163.73 11.8086C1162.25 15.235 1161.86 19.0089 1162.6 22.6523C1163.34 26.2957 1165.18 29.6448 1167.89 32.2753C1170.59 34.9058 1174.05 36.6994 1177.81 37.4289C1181.57 38.1585 1185.47 37.7912 1189.01 36.3735C1192.56 34.9558 1195.59 32.5516 1197.72 29.4653C1199.85 26.379 1200.99 22.7494 1200.99 19.0364C1201 16.5776 1200.5 14.1419 1199.53 11.8685C1198.57 9.59505 1197.15 7.52836 1195.35 5.78645C1193.56 4.04454 1191.43 2.66152 1189.09 1.71636C1186.74 0.771212 1184.23 0.282442 1181.69 0.277966ZM1181.69 34.2598C1178.57 34.2707 1175.53 33.3873 1172.94 31.7215C1170.34 30.0556 1168.32 27.6823 1167.12 24.902C1165.92 22.1218 1165.6 19.0596 1166.2 16.1035C1166.8 13.1473 1168.29 10.43 1170.49 8.29585C1172.69 6.16166 1175.49 4.70653 1178.54 4.11475C1181.59 3.52297 1184.76 3.82116 1187.63 4.97155C1190.51 6.12194 1192.97 8.07279 1194.7 10.577C1196.43 13.0813 1197.35 16.0262 1197.35 19.039C1197.35 23.0663 1195.71 26.9294 1192.77 29.7823C1189.83 32.6352 1185.85 34.2452 1181.69 34.2598ZM1187.03 20.4246C1187.87 20.0545 1188.58 19.4666 1189.09 18.7267C1189.59 17.9784 1189.85 17.1028 1189.83 16.2126C1189.85 15.3157 1189.59 14.4331 1189.09 13.6776C1188.58 12.9376 1187.87 12.3498 1187.03 11.9797C1186.06 11.5534 1185.01 11.3444 1183.94 11.3682H1174.75V26.6966H1178.72V21.0413H1181.25L1185.73 26.7019H1190.34L1185.63 20.8786C1186.12 20.7846 1186.59 20.633 1187.04 20.4272M1178.73 14.3153H1183.42C1184.05 14.2821 1184.68 14.459 1185.19 14.8165C1185.41 14.983 1185.58 15.197 1185.69 15.4407C1185.81 15.6844 1185.86 15.9508 1185.84 16.2179C1185.86 16.4849 1185.8 16.7512 1185.69 16.9949C1185.58 17.2386 1185.41 17.4526 1185.19 17.6192C1184.68 17.9767 1184.05 18.1536 1183.42 18.1205H1178.73V14.3153Z" fill="#1C1C1C"/>
<path d="M411.358 2.65505H303.729C301.832 2.63608 299.941 2.83428 298.092 3.24552C291.469 4.7781 288.219 9.41258 288.219 17.5006V154.386H307.939V19.0043H365.956V154.375H386.107V103.16H411.352C452.986 103.16 476.464 91.5369 476.464 52.8025C476.483 14.2754 452.994 2.65505 411.358 2.65505ZM412.022 86.3697H386.11V19.4452H412.022C437.937 19.4452 456.54 24.6046 456.54 52.8025C456.54 81.2104 437.94 86.3697 412.022 86.3697Z" fill="#1C1C1C"/>
<path d="M158.34 76.3831L142.15 27.9834C139.705 20.6319 134.915 14.22 128.469 9.66889C122.023 5.11777 114.253 2.66178 106.274 2.65381H53.9076C45.9296 2.66234 38.1598 5.11859 31.7144 9.66966C25.269 14.2207 20.4797 20.6324 18.0348 27.9834L1.84979 76.3831C-0.614662 83.7419 -0.616644 91.6659 1.84413 99.0259C4.30491 106.386 9.10286 112.806 15.5542 117.372L57.9254 147.289C64.3623 151.838 72.1263 154.29 80.0964 154.29C88.0666 154.29 95.8306 151.838 102.267 147.289L144.633 117.372C151.085 112.806 155.884 106.386 158.345 99.0264C160.806 91.6664 160.805 83.7422 158.34 76.3831ZM142.809 77.1861L132.555 107.848C130.11 115.199 125.32 121.611 118.874 126.162C112.429 130.713 104.658 133.169 96.68 133.178H63.5047C55.5268 133.169 47.7569 130.713 41.3115 126.162C34.8661 121.611 30.0769 115.199 27.632 107.848L17.376 77.1861C14.9138 69.829 14.9127 61.9074 17.3729 54.5496C19.8331 47.1919 24.6291 40.7732 31.0777 36.2079L57.9173 17.2527C64.3541 12.7031 72.1181 10.2513 80.0883 10.2513C88.0585 10.2513 95.8225 12.7031 102.259 17.2527L129.099 36.2079C135.549 40.7716 140.347 47.1902 142.807 54.5485C145.268 61.9068 145.265 69.8292 142.801 77.1861" fill="#1C1C1C"/>
</g>
</svg>
