<svg viewBox="0 0 25 24" fill="none" xmlns="http://www.w3.org/2000/svg">
    <path
        d="M12.4847 15.4083L15.7267 19.0943C16.9267 20.4593 17.5277 21.1423 18.1567 20.9753C18.7847 20.8093 19.0007 19.9113 19.4317 18.1143L21.8217 8.14628C22.4867 5.37828 22.8187 3.99528 22.0807 3.31228C21.3427 2.62928 20.0637 3.13728 17.5057 4.15228L5.63974 8.86528C3.59374 9.67828 2.57074 10.0843 2.50574 10.7823C2.49809 10.8534 2.49809 10.9252 2.50574 10.9963C2.56874 11.6953 3.58974 12.1043 5.63374 12.9233C6.55874 13.2943 7.02174 13.4803 7.35374 13.8353C7.39107 13.8753 7.42707 13.9166 7.46174 13.9593C7.76774 14.3393 7.89774 14.8393 8.15874 15.8353L8.64774 17.7023C8.90074 18.6723 9.02774 19.1583 9.36074 19.2243C9.69374 19.2903 9.98274 18.8883 10.5617 18.0833L12.4847 15.4083ZM12.4847 15.4083L12.1677 15.0783C11.8057 14.7003 11.6247 14.5123 11.6247 14.2783C11.6247 14.0443 11.8047 13.8553 12.1677 13.4783L15.7407 9.75428"
        stroke="currentColor" stroke-linecap="round" stroke-linejoin="round" />
</svg>