<svg  viewBox="0 0 12 12" fill="none" xmlns="http://www.w3.org/2000/svg">
<path d="M9.3 7.75003C9.87492 7.75018 10.427 7.52527 10.8382 7.12344C11.2494 6.72161 11.4869 6.17479 11.5 5.60003C11.5 5.01655 11.2682 4.45697 10.8556 4.04439C10.4431 3.63181 9.88348 3.40003 9.3 3.40003H9.05C8.82402 2.77176 8.41003 2.22835 7.86432 1.84366C7.31861 1.45898 6.66767 1.25171 6 1.25003C5.33736 1.24731 4.69074 1.45362 4.15213 1.83963C3.61352 2.22563 3.21036 2.77166 3 3.40003H2.7C2.11652 3.40003 1.55695 3.63181 1.14437 4.04439C0.731785 4.45697 0.5 5.01655 0.5 5.60003C0.513066 6.17479 0.750607 6.72161 1.16178 7.12344C1.57295 7.52527 2.12508 7.75018 2.7 7.75003" stroke="currentColor" stroke-miterlimit="10"/>
<path d="M4.25 8.5L6 10L7.75 8.5" stroke="currentColor" stroke-miterlimit="10"/>
<path d="M6 10V6.25" stroke="currentColor" stroke-miterlimit="10"/>
</svg>
