<svg xmlns:xlink="http://www.w3.org/1999/xlink" id="Component_86_1" data-name="Component 86 – 1"
     xmlns="http://www.w3.org/2000/svg" width="243.455" height="243.455" viewBox="0 0 243.455 243.455">
    <defs>
        <radialGradient id="radial-gradient" cx="0.5" cy="0.5" r="0.5" gradientUnits="objectBoundingBox">
            <stop offset="0" stop-color="#fff"/>
            <stop offset="0.399" stop-color="#fff" stop-opacity="0.635"/>
            <stop offset="1" stop-color="#282929" stop-opacity="0"/>
        </radialGradient>
        <linearGradient id="linear-gradient" x1="0.5" y1="1" x2="0.452" gradientUnits="objectBoundingBox">
            <stop offset="0" stop-color="#b2b2b2"/>
            <stop offset="1" stop-color="#fff"/>
        </linearGradient>
        <linearGradient id="linear-gradient-2" x1="0.935" y1="0.264" x2="0.053" y2="0.692"
                        xlink:href="#linear-gradient"/>
    </defs>
    <ellipse id="Ellipse_185" data-name="Ellipse 185" cx="121.728" cy="121.727" rx="121.728" ry="121.727"
             transform="translate(243.455) rotate(90)" opacity="0.18" fill="url(#radial-gradient)"/>
    <path id="Subtraction_27" data-name="Subtraction 27"
          d="M75,150a74.648,74.648,0,0,1-41.933-12.809,75.22,75.22,0,0,1-27.173-33,74.9,74.9,0,0,1,6.915-71.126,75.22,75.22,0,0,1,33-27.173,74.9,74.9,0,0,1,71.127,6.915,75.22,75.22,0,0,1,27.173,33,74.9,74.9,0,0,1-6.915,71.127,75.22,75.22,0,0,1-33,27.173A74.531,74.531,0,0,1,75,150ZM75,13A61.71,61.71,0,0,0,40.335,23.588,62.182,62.182,0,0,0,17.872,50.867a61.918,61.918,0,0,0,5.716,58.8,62.181,62.181,0,0,0,27.278,22.463,61.919,61.919,0,0,0,58.8-5.716,62.179,62.179,0,0,0,22.463-27.278,61.919,61.919,0,0,0-5.716-58.8A62.181,62.181,0,0,0,99.133,17.872,61.612,61.612,0,0,0,75,13Z"
          transform="translate(46.889 46.727)" opacity="0.17" fill="url(#linear-gradient)"/>
    <g id="Layer_1" data-name="Layer 1" transform="translate(54.158 55.576)">
        <path id="Path_351" data-name="Path 351"
              d="M132.24,50.76l-3.21-9.87A59.161,59.161,0,0,0,72.76,0H62.38A59.175,59.175,0,0,0,6.11,40.88L2.9,50.75A59.177,59.177,0,0,0,24.39,116.9l8.4,6.1a59.164,59.164,0,0,0,69.56,0l8.4-6.1a59.162,59.162,0,0,0,21.49-66.15Zm-8.28,18.19-9.22,28.37a33.912,33.912,0,0,1-32.25,23.43H52.66A33.912,33.912,0,0,1,20.41,97.32L11.2,68.95A33.9,33.9,0,0,1,23.52,31.04L47.65,13.51a33.889,33.889,0,0,1,39.86,0l24.13,17.53a33.9,33.9,0,0,1,12.32,37.91Z"
              fill="url(#linear-gradient-2)"/>
    </g>
</svg>
