<svg width="24" height="16" viewBox="0 0 24 16" fill="none" xmlns="http://www.w3.org/2000/svg">
<path d="M11.9014 3.50562C9.433 3.50562 7.43164 5.50613 7.43164 7.97452C7.43164 10.4429 9.433 12.4443 11.9014 12.4443C14.3698 12.4443 16.3703 10.4429 16.3703 7.97452C16.3703 5.50613 14.3698 3.50562 11.9014 3.50562ZM11.9014 11.3483C10.0408 11.3483 8.52758 9.83509 8.52758 7.97452C8.52758 6.11395 10.0408 4.60156 11.9014 4.60156C13.762 4.60156 15.2744 6.1148 15.2744 7.97452C15.2744 9.83425 13.7611 11.3483 11.9014 11.3483Z" fill="currentColor"/>
<path d="M22.5436 6.43654C20.5347 2.61002 16.5227 0 11.9012 0C7.27969 0 3.26686 2.61002 1.25792 6.43654C0.994048 6.93815 0.764744 7.46083 0.574219 8.00121C0.764744 8.54075 0.994048 9.06259 1.25792 9.56419C3.26602 13.3907 7.27885 16.0016 11.9012 16.0016C16.5235 16.0016 20.5355 13.3907 22.5436 9.56419C22.8075 9.06259 23.0368 8.54075 23.2273 8.00121C23.0368 7.46083 22.8075 6.93815 22.5436 6.43654ZM19.6208 11.7072C17.5588 13.7692 14.8172 14.9056 11.9012 14.9056C8.98514 14.9056 6.24276 13.7692 4.18071 11.7072C3.10584 10.6323 2.28304 9.37282 1.74182 8.00037C2.28304 6.62791 3.10584 5.36842 4.18071 4.29356C6.24276 2.2315 8.9843 1.09594 11.9012 1.09594C14.8181 1.09594 17.5588 2.2315 19.6208 4.29356C20.6957 5.36842 21.5185 6.62791 22.0597 8.00037C21.5185 9.37282 20.6957 10.6323 19.6208 11.7072Z" fill="currentColor"/>
</svg>
