<svg width="24" height="19" viewBox="0 0 24 19" fill="none" xmlns="http://www.w3.org/2000/svg">
<path d="M11.9023 12.513C11.5971 12.513 11.3012 12.4725 11.0205 12.3958L10.1572 13.2548C10.6934 13.4824 11.2827 13.6089 11.9023 13.6089C14.3707 13.6089 16.3712 11.6075 16.3712 9.13915C16.3712 8.52795 16.2481 7.94457 16.0264 7.41431L15.1631 8.2742C15.2365 8.55071 15.2753 8.84072 15.2753 9.13915C15.2753 10.9997 13.762 12.513 11.9023 12.513Z" fill="currentColor"/>
<path d="M22.545 7.60157C21.799 6.17937 20.7755 4.92579 19.5472 3.91162L18.7666 4.68805C19.0633 4.92747 19.3491 5.18544 19.6223 5.45858C20.6971 6.53345 21.5199 7.79294 22.0611 9.16539C21.5199 10.5378 20.6971 11.7973 19.6223 12.8722C17.5602 14.9343 14.8187 16.0707 11.9026 16.0707C10.5597 16.0707 9.25382 15.8296 8.03479 15.3676L7.19092 16.2072C8.63756 16.8252 10.23 17.1666 11.9026 17.1666C16.525 17.1666 20.5369 14.5557 22.545 10.7292C22.8089 10.2276 23.0382 9.70578 23.2287 9.16623C23.0382 8.62585 22.8089 8.10317 22.545 7.60157Z" fill="currentColor"/>
<path d="M20.9233 0.173771C20.6932 -0.0572194 20.3197 -0.0580625 20.0887 0.172085L17.6296 2.6194C15.9267 1.69376 13.9759 1.16602 11.9012 1.16602C7.27885 1.16602 3.26686 3.77604 1.25792 7.60256C0.994048 8.10417 0.764744 8.62685 0.574219 9.16723C0.764744 9.70677 0.994048 10.2286 1.25792 10.7302C2.17261 12.4736 3.5046 13.9624 5.119 15.0684L2.88075 17.2957C2.64976 17.5259 2.64892 17.8993 2.87907 18.1303C2.99456 18.2467 3.14546 18.304 3.29721 18.304C3.44896 18.304 3.59817 18.2467 3.71367 18.132L20.9216 1.00837C21.1526 0.778225 21.1535 0.404762 20.9233 0.173771ZM4.18155 12.8724C3.10668 11.7975 2.28389 10.538 1.74266 9.16554C2.28389 7.79309 3.10668 6.5336 4.18155 5.45873C6.2436 3.39668 8.98514 2.26112 11.902 2.26112C13.6387 2.26112 15.3129 2.66409 16.8186 3.42619L14.6318 5.60289C13.8764 5.01951 12.9305 4.6705 11.902 4.6705C9.43363 4.6705 7.43228 6.67101 7.43228 9.13941C7.43228 10.1603 7.77624 11.0995 8.35203 11.8523L5.91061 14.2819C5.29519 13.8764 4.71519 13.406 4.18155 12.8724ZM9.13773 11.07C8.75415 10.5228 8.52822 9.85683 8.52822 9.13941C8.52822 7.27968 10.0415 5.76644 11.902 5.76644C12.6253 5.76644 13.2956 5.99659 13.8452 6.38523L9.13773 11.07Z" fill="currentColor"/>
</svg>
