<svg viewBox="0 0 24 24" fill="none" xmlns="http://www.w3.org/2000/svg">
<path d="M22 15H19.5C18.837 15 18.2011 14.7366 17.7322 14.2678C17.2634 13.7989 17 13.163 17 12.5V5.5C17 4.83696 16.7366 4.20107 16.2678 3.73223C15.7989 3.26339 15.163 3 14.5 3C13.837 3 13.2011 3.26339 12.7322 3.73223C12.2634 4.20107 12 4.83696 12 5.5V18.5C12 19.163 11.7366 19.7989 11.2678 20.2678C10.7989 20.7366 10.163 21 9.5 21C8.83696 21 8.20107 20.7366 7.73223 20.2678C7.26339 19.7989 7 19.163 7 18.5V11.5C7 11.1717 6.93534 10.8466 6.8097 10.5433C6.68406 10.24 6.49991 9.96438 6.26777 9.73223C6.03562 9.50009 5.76002 9.31594 5.45671 9.1903C5.15339 9.06466 4.8283 9 4.5 9H2" stroke="currentColor"/>
</svg>
