<svg  viewBox="0 0 18 20" fill="none" xmlns="http://www.w3.org/2000/svg">
<path d="M8.99924 5C7.40924 5 5.99924 3.27 3.49924 4.32C1.53924 5.14 0.729237 7.15 1.07924 10.38C1.57924 14.93 3.67924 19 5.80924 19C7.18924 19 7.51924 18 8.99924 18C10.4792 18 10.7992 19 12.1892 19C14.3192 19 16.4192 14.93 16.9192 10.38C17.2792 7.15 16.4492 5.14 14.4892 4.32C11.9992 3.27 10.5892 5 8.99924 5ZM8.99924 5C9.00755 4.22527 9.19193 3.46257 9.53842 2.76959C9.88491 2.07661 10.3844 1.47149 10.9992 1" stroke="currentColor" stroke-linecap="round" stroke-linejoin="round"/>
</svg>
