<svg viewBox="0 0 22 22" fill="none" xmlns="http://www.w3.org/2000/svg">
<path d="M13.5004 8.49963H17.036M13.5004 8.49963V4.96409M13.5004 8.49963L11.0003 11.0002M13.5004 8.49963L13.5001 5.54419M13.5004 8.49963L16.4557 8.49956M17.036 8.49963L21.2786 4.25699M17.036 8.49963L19.6153 5.91993M17.036 8.49963L16.4557 8.49956M21.2786 4.25699H17.7431L17.6647 0.799805M21.2786 4.25699L19.6153 5.91993M17.6647 0.799805L13.5004 4.96409M17.6647 0.799805L16.0797 2.38449M13.5004 4.96409L16.0797 2.38449M13.5004 4.96409L13.5001 5.54419M16.0797 2.38449C14.591 1.50486 12.8544 1.00009 11 1.00009C5.47715 1.00009 1 5.47724 1 11.0001C1 16.5229 5.47715 21.0001 11 21.0001C16.5228 21.0001 21 16.5229 21 11.0001C21 9.14547 20.4951 7.40877 19.6153 5.91993M13.5001 5.54419C12.7391 5.19485 11.8923 5.00009 11 5.00009C7.68629 5.00009 5 7.68638 5 11.0001C5 14.3138 7.68629 17.0001 11 17.0001C14.3137 17.0001 17 14.3138 17 11.0001C17 10.1077 16.8052 9.26075 16.4557 8.49956" stroke="currentColor" stroke-linecap="round" stroke-linejoin="round"/>
</svg>
