<svg  viewBox="0 0 22 16" fill="none" xmlns="http://www.w3.org/2000/svg">
<path d="M8.25811 14.0562L14.6221 7.6922C16.1842 6.1301 16.1842 3.59744 14.6221 2.03534C13.06 0.473245 10.5273 0.473245 8.96522 2.03534L2.60126 8.3993M8.25811 14.0562C6.69602 15.6183 4.16336 15.6183 2.60126 14.0562C1.03916 12.4941 1.03916 9.9614 2.60126 8.3993M8.25811 14.0562C9.82021 12.4941 9.82021 9.9614 8.25811 8.3993C6.69602 6.83721 4.16336 6.83721 2.60126 8.3993M5.42969 15.2277L14.4651 15.1899C15.2564 15.1866 16.0144 14.8708 16.5739 14.3113L20.236 10.6492C20.8659 10.0193 20.4198 8.94212 19.5288 8.94212H13.3722" stroke="currentColor" stroke-linecap="round" stroke-linejoin="round"/>
</svg>
