<svg  viewBox="0 0 20 9" fill="none" xmlns="http://www.w3.org/2000/svg">
<path d="M12.848 7.55297C13.3976 8.02759 14.0737 8.33148 14.7935 8.42735C15.5133 8.52322 16.2454 8.4069 16.9001 8.09267C17.5547 7.77843 18.1034 7.27994 18.4788 6.65836C18.8542 6.03678 19.04 5.31913 19.0135 4.59346C18.9869 3.8678 18.7491 3.16567 18.3292 2.57321C17.9093 1.98076 17.3256 1.52375 16.6497 1.25826C15.9739 0.992757 15.2352 0.930314 14.5243 1.07859C13.8135 1.22686 13.1614 1.57941 12.648 2.09297L7.36798 7.37297C6.85461 7.88653 6.20249 8.23907 5.49164 8.38735C4.78078 8.53562 4.0421 8.47318 3.36623 8.20768C2.69035 7.94218 2.10667 7.48517 1.68678 6.89272C1.2669 6.30027 1.02908 5.59814 1.0025 4.87247C0.975919 4.1468 1.16173 3.42916 1.53714 2.80758C1.91256 2.18599 2.46124 1.6875 3.11588 1.37327C3.77052 1.05903 4.50265 0.942715 5.22245 1.03859C5.94225 1.13445 6.61841 1.43834 7.16798 1.91297" stroke="currentColor" stroke-linecap="round" stroke-linejoin="round"/>
</svg>
