<svg  viewBox="0 0 18 16" fill="none" xmlns="http://www.w3.org/2000/svg">
<path d="M15.7276 2.26C16.5425 3.06521 17 4.15539 17 5.29187C17 6.42836 16.5425 7.51854 15.7276 8.32375L8.99788 15L2.26812 8.32375C1.66292 7.72407 1.25089 6.962 1.08361 6.13295C0.916334 5.3039 1.00123 4.4447 1.32768 3.66291C1.65414 2.88112 2.20763 2.21148 2.91889 1.73781C3.63014 1.26414 4.46755 1.0075 5.32629 1C6.47457 1.00686 7.57365 1.45969 8.38446 2.26C8.62095 2.49032 8.82704 2.74902 8.99788 3.03C9.16872 2.74902 9.37481 2.49032 9.61129 2.26C10.0108 1.86105 10.4869 1.54424 11.0119 1.32801C11.5369 1.11177 12.1003 1.00041 12.6695 1.00041C13.2386 1.00041 13.802 1.11177 14.327 1.32801C14.852 1.54424 15.3281 1.86105 15.7276 2.26Z" stroke="currentColor" stroke-linecap="round" stroke-linejoin="round"/>
</svg>
