<svg viewBox="0 0 22 22" fill="none" xmlns="http://www.w3.org/2000/svg">
<path d="M14.5001 4L16.4356 11.355M7.50012 4L5.56461 11.355M14.5001 4.5C14.5001 6.433 12.9331 8 11.0001 8C9.06713 8 7.50012 6.433 7.50012 4.5C7.50012 2.567 9.06713 1 11.0001 1C12.9331 1 14.5001 2.567 14.5001 4.5ZM1.96604 20.7585L3.89789 21.2761C4.43136 21.419 4.97969 21.1025 5.12263 20.569L7.19319 12.8416C7.33613 12.3081 7.01955 11.7598 6.48608 11.6168L4.55423 11.0992C4.02076 10.9563 3.47243 11.2728 3.32948 11.8063L1.25893 19.5337C1.11599 20.0672 1.43257 20.6155 1.96604 20.7585ZM19.9862 20.8831L18.0543 21.4007C17.5208 21.5437 16.9725 21.2271 16.8296 20.6936L14.759 12.9662C14.6161 12.4328 14.9326 11.8844 15.4661 11.7415L17.398 11.2238C17.9314 11.0809 18.4798 11.3975 18.6227 11.931L20.6933 19.6584C20.8362 20.1918 20.5196 20.7402 19.9862 20.8831Z" stroke="currentColor" stroke-linecap="round" stroke-linejoin="round"/>
</svg>
