<svg width="43" height="43" viewBox="0 0 43 43" fill="none" xmlns="http://www.w3.org/2000/svg">
<path fill-rule="evenodd" clip-rule="evenodd" d="M21.5 42C32.8218 42 42 32.8218 42 21.5C42 10.1782 32.8218 1 21.5 1C10.1782 1 1 10.1782 1 21.5C1 32.8218 10.1782 42 21.5 42ZM21.5 43C33.3741 43 43 33.3741 43 21.5C43 9.62588 33.3741 0 21.5 0C9.62588 0 0 9.62588 0 21.5C0 33.3741 9.62588 43 21.5 43Z" fill="white"/>
<path fill-rule="evenodd" clip-rule="evenodd" d="M21.3534 31.3536C21.1581 31.5488 20.8415 31.5488 20.6463 31.3536L11.6463 22.3536C11.451 22.1583 11.451 21.8417 11.6463 21.6464L20.6463 12.6464C20.8415 12.4512 21.1581 12.4512 21.3534 12.6464C21.5486 12.8417 21.5486 13.1583 21.3534 13.3536L13.2069 21.5H32.5698C32.846 21.5 33.0698 21.7239 33.0698 22C33.0698 22.2761 32.846 22.5 32.5698 22.5H13.2069L21.3534 30.6464C21.5486 30.8417 21.5486 31.1583 21.3534 31.3536Z" fill="white"/>
</svg>
