<svg width="18" height="18" viewBox="0 0 18 18" fill="none" xmlns="http://www.w3.org/2000/svg">
    <path d="M16.714 5.14282H6.42829C6.0873 5.14282 5.76027 5.27828 5.51916 5.5194C5.27804 5.76052 5.14258 6.08754 5.14258 6.42854V16.7143C5.14258 17.0552 5.27804 17.3823 5.51916 17.6234C5.76027 17.8645 6.0873 18 6.42829 18H16.714C17.055 18 17.382 17.8645 17.6231 17.6234C17.8643 17.3823 17.9997 17.0552 17.9997 16.7143V6.42854C17.9997 6.08754 17.8643 5.76052 17.6231 5.5194C17.382 5.27828 17.055 5.14282 16.714 5.14282ZM6.42829 16.7143V6.42854H16.714V16.7143H6.42829Z"
          fill="currentColor" fill-opacity="0.3"/>
    <path d="M3.21429 11.5714H1.28571V1.28571H11.5714V3.21429C11.5714 3.38478 11.6392 3.5483 11.7597 3.66885C11.8803 3.78941 12.0438 3.85714 12.2143 3.85714C12.3848 3.85714 12.5483 3.78941 12.6689 3.66885C12.7894 3.5483 12.8571 3.38478 12.8571 3.21429V1.28571C12.8571 0.944722 12.7217 0.617695 12.4806 0.376577C12.2394 0.135459 11.9124 0 11.5714 0H1.28571C0.944722 0 0.617695 0.135459 0.376577 0.376577C0.135459 0.617695 0 0.944722 0 1.28571V11.5714C0 11.9124 0.135459 12.2394 0.376577 12.4806C0.617695 12.7217 0.944722 12.8571 1.28571 12.8571H3.21429C3.38478 12.8571 3.5483 12.7894 3.66885 12.6689C3.78941 12.5483 3.85714 12.3848 3.85714 12.2143C3.85714 12.0438 3.78941 11.8803 3.66885 11.7597C3.5483 11.6392 3.38478 11.5714 3.21429 11.5714Z"
          fill="currentColor" fill-opacity="0.3"/>
</svg>
