<svg width="18" height="18" viewBox="0 0 18 18" fill="none" xmlns="http://www.w3.org/2000/svg">
    <path d="M0.626537 10.7273C0.879447 11.031 1.19592 11.2754 1.55363 11.4434C1.91133 11.6113 2.30154 11.6987 2.69672 11.6994L6.80107 11.6994L6.29703 12.9865C6.08737 13.5501 6.01755 14.1561 6.09355 14.7525C6.16956 15.349 6.38912 15.9181 6.7334 16.4111C7.07768 16.9041 7.53641 17.3062 8.07024 17.5829C8.60406 17.8596 9.19705 18.0028 9.79833 18C9.97147 17.9996 10.1408 17.9493 10.2861 17.8551C10.4314 17.7609 10.5464 17.6268 10.6174 17.4689L13.1826 11.6994L15.2978 11.6994C16.014 11.6994 16.7008 11.4149 17.2072 10.9085C17.7136 10.4021 17.998 9.71532 17.998 8.99918L17.998 2.69863C17.998 1.98248 17.7136 1.29567 17.2072 0.789276C16.7008 0.282883 16.014 -0.00160391 15.2978 -0.00160384L3.83981 -0.00160284C3.20813 -0.00139298 2.59651 0.220275 2.11137 0.62483C1.62624 1.02939 1.29829 1.59122 1.18458 2.21259L0.041484 8.51314C-0.0292176 8.90253 -0.0134609 9.3027 0.08764 9.68533C0.188741 10.068 0.372714 10.4237 0.626537 10.7273ZM13.4977 1.79855L15.2978 1.79855C15.5365 1.79855 15.7655 1.89338 15.9343 2.06218C16.1031 2.23098 16.1979 2.45992 16.1979 2.69863L16.1979 8.99918C16.1979 9.23789 16.1031 9.46683 15.9343 9.63563C15.7655 9.80443 15.5365 9.89926 15.2978 9.89926L13.4977 9.89926L13.4977 1.79855ZM1.79664 8.83716L2.93974 2.53662C2.97808 2.32694 3.08959 2.13767 3.25441 2.00251C3.41924 1.86735 3.62669 1.79508 3.83981 1.79855L11.6975 1.79855L11.6975 10.6103L9.24929 16.1188C8.99728 16.0453 8.76324 15.9204 8.56193 15.7519C8.36063 15.5835 8.19644 15.3751 8.07973 15.14C7.96301 14.9048 7.8963 14.6481 7.88382 14.3859C7.87133 14.1237 7.91333 13.8617 8.00718 13.6166L8.48422 12.3295C8.58587 12.0574 8.62018 11.7648 8.58424 11.4766C8.5483 11.1884 8.44316 10.9132 8.2778 10.6745C8.11244 10.4357 7.89177 10.2405 7.63463 10.1055C7.37748 9.97053 7.09149 9.89976 6.80107 9.89926L2.69672 9.89926C2.56448 9.89947 2.43383 9.87055 2.31404 9.81455C2.19426 9.75854 2.08828 9.67683 2.00365 9.57523C1.91695 9.47503 1.85343 9.35692 1.81765 9.22934C1.78186 9.10175 1.77469 8.96784 1.79664 8.83716Z"
          fill="currentColor" fill-opacity="0.3"/>
</svg>
