<svg width="18" height="18" viewBox="0 0 18 18" fill="none" xmlns="http://www.w3.org/2000/svg">
    <path d="M17.3715 7.27267C17.1186 6.96903 16.8021 6.7246 16.4444 6.55663C16.0867 6.38867 15.6965 6.30126 15.3013 6.30059H11.197L11.701 5.01348C11.9107 4.44992 11.9805 3.84392 11.9045 3.24745C11.8285 2.65098 11.6089 2.08185 11.2646 1.58888C10.9204 1.09591 10.4616 0.693817 9.92781 0.417085C9.39398 0.140353 8.801 -0.00275372 8.19971 4.01356e-05C8.02657 0.000401393 7.85721 0.0506923 7.71193 0.144883C7.56666 0.239074 7.45163 0.373167 7.38064 0.531086L4.81542 6.30059H2.70023C1.98409 6.30059 1.29727 6.58508 0.790881 7.09147C0.284488 7.59786 0 8.28468 0 9.00082V15.3014C0 16.0175 0.284488 16.7043 0.790881 17.2107C1.29727 17.7171 1.98409 18.0016 2.70023 18.0016H14.1582C14.7899 18.0014 15.4015 17.7797 15.8867 17.3752C16.3718 16.9706 16.6998 16.4088 16.8135 15.7874L17.9566 9.48687C18.0273 9.09747 18.0115 8.6973 17.9104 8.31467C17.8093 7.93204 17.6253 7.57632 17.3715 7.27267ZM4.50039 16.2014H2.70023C2.46152 16.2014 2.23258 16.1066 2.06378 15.9378C1.89499 15.769 1.80016 15.5401 1.80016 15.3014V9.00082C1.80016 8.76211 1.89499 8.53317 2.06378 8.36437C2.23258 8.19557 2.46152 8.10074 2.70023 8.10074H4.50039V16.2014ZM16.2014 9.16284L15.0583 15.4634C15.02 15.6731 14.9085 15.8623 14.7436 15.9975C14.5788 16.1326 14.3714 16.2049 14.1582 16.2014H6.30055V7.38968L8.74876 1.8812C9.00077 1.95467 9.23481 2.07959 9.43611 2.24806C9.63741 2.41653 9.8016 2.62491 9.91832 2.86003C10.035 3.09516 10.1017 3.35192 10.1142 3.61412C10.1267 3.87633 10.0847 4.13827 9.99087 4.38342L9.51383 5.67053C9.41218 5.94259 9.37786 6.2352 9.41381 6.52339C9.44975 6.81158 9.55489 7.08679 9.72025 7.32554C9.8856 7.56429 10.1063 7.75949 10.3634 7.89448C10.6206 8.02947 10.9066 8.10024 11.197 8.10074H15.3013C15.4336 8.10053 15.5642 8.12945 15.684 8.18546C15.8038 8.24146 15.9098 8.32317 15.9944 8.42477C16.0811 8.52497 16.1446 8.64308 16.1804 8.77067C16.2162 8.89825 16.2234 9.03216 16.2014 9.16284Z"
          fill="currentColor" fill-opacity="0.3"/>
</svg>
